<!DOCTYPE svg PUBLIC "-//W3C//DTD SVG 1.1//EN" "http://www.w3.org/Graphics/SVG/1.1/DTD/svg11.dtd">
<!-- Uploaded to: SVG Repo, www.svgrepo.com, Transformed by: SVG Repo Mixer Tools -->
<svg fill="#1579e5" width="800px" height="800px" viewBox="0 0 64 64" enable-background="new 0 0 64 64" id="Layer_1" version="1.1" xml:space="preserve" xmlns="http://www.w3.org/2000/svg" xmlns:xlink="http://www.w3.org/1999/xlink" stroke="#1579e5">
<g id="SVGRepo_bgCarrier" stroke-width="0"/>
<g id="SVGRepo_tracerCarrier" stroke-linecap="round" stroke-linejoin="round"/>
<g id="SVGRepo_iconCarrier"> <g> <path d="M31.692,31.836c-1.468,0-2.694-0.905-3.472-1.479c-1.049-0.773-2.133-1.608-3.316-2.552 c-2.063-1.646-3.896-3.51-5.668-5.313c-0.85-0.864-1.701-1.73-2.581-2.577c-0.398-0.383-0.41-1.016-0.027-1.414 c0.383-0.398,1.016-0.41,1.414-0.027c0.894,0.86,1.758,1.739,2.62,2.616c1.812,1.841,3.521,3.581,5.49,5.151 c1.163,0.928,2.228,1.748,3.256,2.506c0.86,0.635,1.771,1.238,2.618,1.052c0.833-0.186,2.574-1.804,3.509-2.674 c0.285-0.265,0.539-0.501,0.746-0.683c1.217-1.068,2.431-2.206,3.604-3.307c1.852-1.736,3.766-3.531,5.782-5.141 c0.433-0.345,1.062-0.273,1.405,0.157c0.345,0.432,0.274,1.061-0.157,1.405c-1.954,1.561-3.84,3.328-5.662,5.038 c-1.186,1.112-2.412,2.261-3.652,3.351c-0.195,0.171-0.435,0.395-0.704,0.645c-1.682,1.564-3.176,2.882-4.438,3.162 C32.198,31.81,31.941,31.836,31.692,31.836z"/> </g> <g> <path d="M38.101,46.901c-2.721,0-6.351-0.072-9.554-0.135c-3.259-0.064-6.277-0.127-7.679-0.095l-0.137,0.001 c-1.457,0-2.66-0.473-3.577-1.406c-1.566-1.594-1.762-4.018-1.738-5.32c0.081-4.506,0.054-9.165,0.026-13.67 c-0.012-2.098-0.024-4.188-0.026-6.258c-0.001-0.678,0.272-1.896,2.112-2.439c0.961-0.284,2.126-0.32,3.034-0.32l1.199,0.01 l0.253-0.002c2.548-0.066,9.935-0.1,15.329-0.124c3.296-0.015,5.977-0.026,6.67-0.042l0.143-0.001c1.939,0,2.917,0.858,3.395,1.578 c1.075,1.618,1.087,5.444,1,9.558c-0.014,0.638-0.025,1.176-0.021,1.555c0.038,3.26,0.026,5.146,0.014,7.139 c-0.007,1.033-0.014,2.095-0.014,3.394c0,3.969-2.287,6.154-6.797,6.495C40.99,46.874,39.802,46.901,38.101,46.901z M21.753,44.664 c1.6,0,4.142,0.05,6.833,0.103c3.193,0.063,6.813,0.134,9.515,0.134c1.628,0,2.799-0.026,3.482-0.078 c3.468-0.262,4.947-1.608,4.947-4.501c0-1.304,0.007-2.37,0.014-3.406c0.013-1.983,0.024-3.859-0.014-7.103 c-0.005-0.395,0.007-0.956,0.021-1.621c0.05-2.33,0.151-7.179-0.666-8.408c-0.302-0.454-0.883-0.685-1.729-0.685 c-0.797,0.016-3.491,0.028-6.804,0.043c-5.385,0.024-12.76,0.057-15.285,0.123l-0.306,0.003l-1.199-0.01 c-0.713,0-1.744,0.025-2.468,0.238c-0.679,0.201-0.679,0.416-0.679,0.519c0.002,2.066,0.015,4.153,0.026,6.248 c0.027,4.517,0.055,9.188-0.026,13.718c-0.03,1.683,0.395,3.099,1.165,3.883c0.534,0.543,1.237,0.808,2.15,0.808 C21.086,44.666,21.397,44.664,21.753,44.664z"/> </g> </g>
</svg>